<svg width="79" height="66" viewBox="0 0 79 66" fill="none" xmlns="http://www.w3.org/2000/svg">
<path d="M2.14935 65.7603H20.8316C21.377 65.7603 21.8664 65.4791 22.1041 65.0446L39.36 33.633C39.5558 33.2624 39.5558 32.8279 39.36 32.4573L22.1041 1.04572C21.8664 0.611223 21.363 0.330078 20.8316 0.330078H2.14935C1.65992 0.330078 1.19846 0.560106 0.932766 0.943486C0.667076 1.32687 0.653091 1.81248 0.876831 2.20864L17.8111 33.0452L0.876831 63.8689C0.653091 64.2779 0.681061 64.7507 0.932766 65.1341C1.19846 65.5302 1.65992 65.7603 2.14935 65.7603ZM19.9506 63.1533H4.45667L20.6778 33.633C20.8735 33.2624 20.8735 32.8279 20.6778 32.4573L4.45667 2.93706H19.9506L36.4933 33.0452L19.9506 63.1533Z" fill="white"/>
<path d="M20.9723 55.4633C21.4897 55.4633 21.9931 55.1876 22.2448 54.7281L22.6923 53.8748C23.0419 53.2185 22.7622 52.4045 22.063 52.0763C21.3638 51.7482 20.4968 52.0107 20.1472 52.6671L19.6998 53.5204C19.3502 54.1768 19.6298 54.9907 20.329 55.3189C20.5388 55.4239 20.7625 55.4633 20.9723 55.4633Z" fill="white"/>
<path d="M23.7106 50.3735C24.228 50.3735 24.7314 50.1051 24.9831 49.6578L33.7929 33.6325C34.1424 32.9935 33.8628 32.2012 33.1636 31.8817C32.4644 31.5622 31.5974 31.8178 31.2478 32.4568L22.4381 48.4821C22.0885 49.1211 22.3682 49.9134 23.0673 50.2329C23.2771 50.3351 23.5008 50.3735 23.7106 50.3735Z" fill="white"/>
<path d="M40.7978 65.7603H59.48C60.0254 65.7603 60.5148 65.4791 60.7525 65.0446L78.0084 33.633C78.2042 33.2624 78.2042 32.8279 78.0084 32.4573L60.7525 1.04572C60.5148 0.611223 60.0114 0.330078 59.48 0.330078H40.7978C40.3084 0.330078 39.8469 0.560106 39.5812 0.943486C39.3155 1.32687 39.3015 1.81248 39.5253 2.20864L56.4595 33.0452L39.5253 63.8689C39.3015 64.2779 39.3295 64.7507 39.5812 65.1341C39.8469 65.5302 40.3084 65.7603 40.7978 65.7603ZM58.5991 63.1533H43.1051L59.3262 33.633C59.522 33.2624 59.522 32.8279 59.3262 32.4573L43.1051 2.93706H58.5991L75.1418 33.0452L58.5991 63.1533Z" fill="white"/>
<path d="M60.1129 55.3178C60.6303 55.3178 61.1337 55.0421 61.3854 54.5826L61.8329 53.7293C62.1825 53.0729 61.9028 52.259 61.2036 51.9308C60.5044 51.6027 59.6375 51.8652 59.2879 52.5216L58.8404 53.3749C58.4908 54.0313 58.7705 54.8452 59.4696 55.1734C59.6794 55.2784 59.9031 55.3178 60.1129 55.3178Z" fill="white"/>
<path d="M62.8532 50.227C63.3706 50.227 63.874 49.9586 64.1257 49.5113L72.9354 33.486C73.285 32.847 73.0054 32.0547 72.3062 31.7352C71.607 31.4157 70.74 31.6713 70.3904 32.3103L61.5807 48.3356C61.2311 48.9746 61.5107 49.7669 62.2099 50.0864C62.4197 50.1887 62.6434 50.227 62.8532 50.227Z" fill="white"/>
</svg>
