<svg width="78" height="67" viewBox="0 0 78 67" fill="none" xmlns="http://www.w3.org/2000/svg">
<path d="M76.4796 66.0293H57.7973C57.252 66.0293 56.7625 65.7482 56.5248 65.3137L39.2689 33.9021C39.0731 33.5315 39.0731 33.097 39.2689 32.7264L56.5248 1.31476C56.7625 0.880266 57.2659 0.599121 57.7973 0.599121H76.4796C76.969 0.599121 77.4305 0.829149 77.6961 1.21253C77.9618 1.59591 77.9758 2.08152 77.7521 2.47768L60.8178 33.3142L77.7521 64.138C77.9758 64.5469 77.9478 65.0197 77.6961 65.4031C77.4305 65.7993 76.969 66.0293 76.4796 66.0293ZM58.6783 63.4223H74.1722L57.9511 33.9021C57.7554 33.5315 57.7554 33.097 57.9511 32.7264L74.1722 3.2061H58.6783L42.1356 33.3142L58.6783 63.4223Z" fill="white"/>
<path d="M57.6566 55.7328C57.1392 55.7328 56.6358 55.4571 56.3841 54.9977L55.9366 54.1444C55.587 53.488 55.8667 52.6741 56.5659 52.3459C57.2651 52.0177 58.1321 52.2802 58.4817 52.9366L58.9292 53.7899C59.2787 54.4463 58.9991 55.2602 58.2999 55.5884C58.0901 55.6934 57.8664 55.7328 57.6566 55.7328Z" fill="white"/>
<path d="M54.9173 50.6425C54.3999 50.6425 53.8965 50.3742 53.6448 49.9269L44.8351 33.9015C44.4855 33.2625 44.7652 32.4702 45.4643 32.1507C46.1635 31.8312 47.0305 32.0868 47.3801 32.7258L56.1898 48.7512C56.5394 49.3901 56.2598 50.1825 55.5606 50.5019C55.3508 50.6042 55.1271 50.6425 54.9173 50.6425Z" fill="white"/>
<path d="M37.8311 66.0293H19.1489C18.6035 66.0293 18.1141 65.7482 17.8764 65.3137L0.620462 33.9021C0.42469 33.5315 0.42469 33.097 0.620462 32.7264L17.8764 1.31476C18.1141 0.880266 18.6175 0.599121 19.1489 0.599121H37.8311C38.3205 0.599121 38.782 0.829149 39.0477 1.21253C39.3134 1.59591 39.3274 2.08152 39.1036 2.47768L22.1694 33.3142L39.1036 64.138C39.3274 64.5469 39.2994 65.0197 39.0477 65.4031C38.782 65.7993 38.3205 66.0293 37.8311 66.0293ZM20.0299 63.4223H35.5238L19.3027 33.9021C19.1069 33.5315 19.1069 33.097 19.3027 32.7264L35.5238 3.2061H20.0299L3.48712 33.3142L20.0299 63.4223Z" fill="white"/>
<path d="M18.515 55.5868C17.9976 55.5868 17.4942 55.3111 17.2425 54.8517L16.795 53.9984C16.4454 53.342 16.7251 52.5281 17.4243 52.1999C18.1235 51.8717 18.9905 52.1342 19.3401 52.7906L19.7875 53.6439C20.1371 54.3003 19.8575 55.1142 19.1583 55.4424C18.9485 55.5474 18.7248 55.5868 18.515 55.5868Z" fill="white"/>
<path d="M15.7757 50.496C15.2583 50.496 14.7549 50.2277 14.5032 49.7804L5.69347 33.755C5.34388 33.1161 5.62355 32.3237 6.32274 32.0042C7.02193 31.6848 7.88892 31.9403 8.23851 32.5793L17.0482 48.6047C17.3978 49.2437 17.1182 50.036 16.419 50.3555C16.2092 50.4577 15.9855 50.496 15.7757 50.496Z" fill="white"/>
</svg>
