<svg width="86" height="85" viewBox="0 0 86 85" fill="none" xmlns="http://www.w3.org/2000/svg">
<g clip-path="url(#clip0_31_2565)">
<path d="M83.2988 0.0830078H2.53986C1.75663 0.0830078 1.14746 0.709586 1.14746 1.4754V57.1712C1.14746 57.937 1.77404 58.5636 2.53986 58.5636H27.7422L16.1853 70.1031C15.6458 70.6426 15.6458 71.5303 16.1853 72.0698C16.4464 72.3309 16.7945 72.4702 17.1774 72.4702H27.603V82.8957C27.603 83.6615 28.2296 84.2881 28.9954 84.2881C29.3609 84.2881 29.7264 84.1489 29.9875 83.8878L42.7975 71.0778H42.9193H43.0586L55.8686 83.8878C56.4082 84.4274 57.2958 84.4274 57.8354 83.8878C58.0964 83.6267 58.2357 83.2786 58.2357 82.8957V72.4876H68.6612C69.4271 72.4876 70.0536 71.861 70.0536 71.0952C70.0536 70.7297 69.9144 70.3642 69.6533 70.1031L58.0964 58.5636H83.2988C84.0646 58.5636 84.6912 57.937 84.6912 57.1712V1.4754C84.6912 0.709586 84.0646 0.0830078 83.2988 0.0830078ZM30.3878 79.554V71.0952C30.3878 70.3294 29.7612 69.7028 28.9954 69.7028H20.5366L29.4653 60.774C29.4827 60.8263 29.5001 60.8785 29.5175 60.9307C29.5349 60.9829 29.5349 61.0177 29.5523 61.0525C29.5871 61.1395 29.6045 61.2266 29.622 61.2962C29.7612 61.7661 29.9352 62.2187 30.1267 62.6538C30.1963 62.8278 30.2659 63.0019 30.3356 63.1411C30.4922 63.4892 30.6836 63.8373 30.8925 64.1506C31.0666 64.4639 31.258 64.7772 31.4669 65.0557C31.6757 65.3689 31.902 65.6822 32.1457 65.9607C32.2153 66.0477 32.2849 66.1348 32.2849 66.1348C32.5286 66.4306 32.7896 66.7091 33.0681 66.9876C33.3466 67.2661 33.6251 67.5272 33.8339 67.7012C33.921 67.7708 34.008 67.8579 34.095 67.9101C34.3561 68.1363 34.6346 68.3452 34.9305 68.5366C35.2437 68.7629 35.557 68.9718 35.8877 69.1632C36.2358 69.3721 36.5839 69.5461 36.9146 69.7028C37.0713 69.7724 37.2105 69.842 37.3671 69.8942C37.8023 70.1031 38.2548 70.2597 38.7247 70.399C38.9162 70.4686 39.125 70.5208 39.3165 70.573L30.3878 79.554ZM45.7737 67.9275L45.5823 67.9797C45.269 68.0493 44.9383 68.1189 44.625 68.1711C44.2769 68.2234 43.894 68.2582 43.5285 68.293C43.337 68.3104 43.1282 68.3104 42.9193 68.3104C42.7105 68.3104 42.5016 68.3104 42.3102 68.293C41.9272 68.2582 41.5617 68.2234 41.2136 68.1711C40.8829 68.1189 40.5697 68.0493 40.2912 67.9797L40.0649 67.9275C39.9257 67.8927 39.7864 67.8578 39.5776 67.7882C39.1947 67.6838 38.8292 67.5446 38.4637 67.3705C38.3592 67.3357 38.2722 67.3009 38.133 67.2313C37.8545 67.092 37.5586 66.9528 37.2975 66.7962C37.0365 66.6395 36.7928 66.4829 36.5491 66.3088C36.3054 66.1522 36.0618 65.9607 35.8355 65.7693C35.8007 65.7345 35.7485 65.6996 35.7137 65.6648C35.4874 65.4734 35.2612 65.2645 35.0349 65.0383C34.8086 64.812 34.5998 64.5857 34.4083 64.3595C34.3735 64.3072 34.3387 64.2724 34.3039 64.2376C34.095 63.9766 33.8862 63.7155 33.7121 63.437C33.5555 63.2107 33.3988 62.9845 33.277 62.7408C33.1203 62.4797 32.9637 62.2012 32.8245 61.9228C32.7722 61.8183 32.7374 61.7313 32.6678 61.5399C32.5112 61.1918 32.3719 60.8088 32.2675 60.4433C32.2153 60.3041 32.1805 60.1649 32.1457 60.0256L32.0935 59.8342C32.0238 59.5209 31.9542 59.1902 31.902 58.8769C31.8498 58.5288 31.815 58.1459 31.7802 57.7804C31.7628 57.5715 31.7628 57.3627 31.7628 57.1538C31.7628 51.0099 36.758 46.0146 42.9019 46.0146C49.0459 46.0146 54.0411 51.0099 54.0411 57.1538C54.0411 57.3627 54.0411 57.5715 54.0237 57.763C53.9889 58.1459 53.9541 58.5114 53.9018 58.8595C53.8496 59.1902 53.78 59.5035 53.7104 59.782L53.6582 60.0082C53.6234 60.1475 53.5886 60.2867 53.5189 60.4956C53.4145 60.8785 53.2579 61.244 53.1012 61.6095C53.0664 61.7139 53.0316 61.8009 52.962 61.9402C52.8227 62.2187 52.6835 62.5145 52.5269 62.7756C52.3876 63.0367 52.2136 63.2804 52.0395 63.524C51.8829 63.7677 51.6914 64.0114 51.5 64.2376C51.4652 64.2724 51.4303 64.3246 51.3955 64.3595C51.2041 64.5857 50.9952 64.812 50.769 65.0383C50.5427 65.2645 50.3164 65.4734 50.0902 65.6648C50.0379 65.6996 50.0031 65.7345 49.9509 65.7693C49.6898 65.9781 49.4288 66.1696 49.1677 66.361C48.9588 66.5177 48.7326 66.6569 48.5063 66.7962C48.2278 66.9528 47.9494 67.1094 47.6361 67.2487C47.5316 67.3009 47.4446 67.3357 47.2532 67.4053C46.9051 67.562 46.5222 67.7012 46.1566 67.8056C46.0522 67.8579 45.913 67.8927 45.7737 67.9275ZM65.3021 69.7028H56.8433C56.0775 69.7028 55.4509 70.3294 55.4509 71.0952V79.554L46.5222 70.6252L46.6788 70.573C46.7136 70.5556 46.7658 70.5556 46.8006 70.5382C46.8876 70.5034 46.9747 70.486 47.0443 70.4686C47.5142 70.3294 47.9668 70.1553 48.4019 69.9639C48.5759 69.8942 48.75 69.8246 48.8892 69.755C49.2373 69.5809 49.6028 69.4069 49.9509 69.198C50.2468 69.024 50.5427 68.8325 50.8212 68.6411C51.1345 68.4322 51.4478 68.2059 51.7262 67.9623C51.7784 67.9275 51.8481 67.8753 51.9003 67.823C52.1962 67.5794 52.4746 67.3183 52.7531 67.0398C53.0316 66.7613 53.2927 66.4829 53.4667 66.274C53.5363 66.187 53.6234 66.1 53.6756 66.0129C53.9018 65.7519 54.1107 65.4734 54.3022 65.1775C54.5284 64.8642 54.7373 64.5509 54.9287 64.2202C55.1376 63.8721 55.3116 63.524 55.4683 63.1933C55.5553 63.0193 55.6249 62.8452 55.6771 62.7408C55.886 62.3057 56.0427 61.8531 56.1819 61.3832C56.2515 61.1918 56.3037 60.9829 56.3559 60.7914L65.3021 69.7028ZM81.9064 55.7788H56.7737V55.7614C56.7563 55.6396 56.7388 55.5352 56.7214 55.4307C56.6866 55.1 56.6344 54.7519 56.5648 54.4212C56.53 54.2472 56.4778 54.0731 56.443 53.9165C56.3733 53.6554 56.3211 53.3943 56.2341 53.1333C56.1819 52.9418 56.1123 52.7678 56.0427 52.5937C55.9556 52.3501 55.886 52.1238 55.7816 51.8975C55.712 51.7061 55.6249 51.532 55.5379 51.358C55.4335 51.1491 55.3291 50.9228 55.2246 50.714C55.1376 50.5399 55.0332 50.3659 54.9287 50.1918C54.8069 49.983 54.6851 49.7915 54.5632 49.6001C54.4588 49.426 54.337 49.2694 54.2151 49.0953C54.0759 48.9039 53.9367 48.7298 53.7974 48.5384C53.6582 48.3469 53.5363 48.2251 53.3971 48.0684C53.2405 47.8944 53.1012 47.7203 52.9272 47.5637C52.7705 47.3896 52.6487 47.2678 52.492 47.1286C52.3354 46.9893 52.1614 46.8153 51.9873 46.6586C51.8307 46.5194 51.674 46.3976 51.5174 46.2757C51.3433 46.1365 51.1519 45.9972 50.9604 45.858C50.8038 45.7362 50.6297 45.6317 50.4557 45.5099C50.2642 45.3881 50.0554 45.2662 49.8465 45.1444C49.6724 45.04 49.4984 44.9355 49.3243 44.8485C49.1155 44.7441 48.8892 44.6397 48.6804 44.5352C48.5063 44.4482 48.3323 44.3612 48.1408 44.2916C47.9145 44.2045 47.6709 44.1175 47.4446 44.0305C47.2706 43.9609 47.0791 43.8912 46.9051 43.839C46.6614 43.7694 46.4003 43.6998 46.1392 43.6476C45.9652 43.6128 45.7911 43.5606 45.6171 43.5257C45.3212 43.4735 45.0253 43.4213 44.7294 43.3865C44.5728 43.3691 44.4336 43.3343 44.2769 43.3169C43.8244 43.2647 43.3545 43.2473 42.9019 43.2473C42.4494 43.2473 41.9795 43.2647 41.5269 43.3169C41.3703 43.3343 41.2136 43.3691 41.0744 43.3865C40.7785 43.4213 40.4826 43.4561 40.1867 43.5257C40.0127 43.5606 39.8386 43.6128 39.6646 43.6476C39.4035 43.7172 39.1425 43.7694 38.8988 43.839C38.7073 43.8912 38.5333 43.9609 38.3592 44.0305C38.1156 44.1175 37.8893 44.1871 37.663 44.2916C37.489 44.3612 37.2975 44.4482 37.1235 44.5352C36.8972 44.6397 36.6884 44.7441 36.4795 44.8485C36.3054 44.9355 36.1314 45.04 35.9573 45.1444C35.7485 45.2662 35.557 45.3881 35.3482 45.5099C35.1741 45.6143 35.0175 45.7362 34.8434 45.858C34.652 45.9972 34.4605 46.1365 34.2865 46.2757C34.1298 46.3976 33.9732 46.5368 33.8165 46.6586C33.6425 46.8153 33.4684 46.9719 33.3118 47.1286C33.1552 47.2852 33.0159 47.407 32.8767 47.5637C32.7374 47.7203 32.5634 47.8944 32.4067 48.0684C32.2675 48.2251 32.1457 48.3817 32.0064 48.5384C31.8846 48.695 31.7279 48.9039 31.5887 49.0953C31.4669 49.2694 31.345 49.426 31.2406 49.6001C31.1188 49.7915 30.9969 50.0004 30.8751 50.1918C30.7707 50.3659 30.6662 50.5399 30.5792 50.714C30.4748 50.9228 30.3704 51.1491 30.2659 51.358C30.1789 51.532 30.0919 51.7235 30.0223 51.8975C29.9352 52.1238 29.8482 52.3675 29.7612 52.5937C29.6916 52.7678 29.622 52.9592 29.5697 53.1333C29.5001 53.3943 29.4305 53.6554 29.3609 53.9165C29.3261 54.0905 29.2738 54.2472 29.239 54.4212C29.1694 54.7519 29.1346 55.0826 29.0824 55.4307C29.065 55.5352 29.0476 55.657 29.0302 55.7614V55.7788H3.93225V2.8678H81.9064V55.7788Z" fill="#DFDFDF"/>
<path d="M42.9179 48.8184C38.2882 48.8358 34.5461 52.6126 34.5635 57.2424C34.5635 57.2598 34.5635 57.2772 34.5635 57.2772C34.5635 57.3816 34.5635 57.486 34.5635 57.5904C34.5809 57.9037 34.6158 58.1996 34.6506 58.4607C34.755 59.1395 35.3294 59.6616 36.0256 59.6616C36.0952 59.6616 36.1648 59.6616 36.217 59.6442C36.9828 59.5398 37.505 58.8262 37.4005 58.0778C37.3657 57.8863 37.3483 57.6427 37.3309 57.4338V57.1727C37.3309 54.0921 39.8198 51.6032 42.9005 51.6032C43.6663 51.6032 44.2929 50.9766 44.2929 50.2108C44.2929 49.4449 43.6837 48.8184 42.9179 48.8184Z" fill="#DFDFDF"/>
<path d="M67.9815 14.0073H17.8553C17.0895 14.0073 16.4629 14.6339 16.4629 15.3997C16.4629 16.1655 17.0895 16.7921 17.8553 16.7921H67.9815C68.7473 16.7921 69.3739 16.1655 69.3739 15.3997C69.3739 14.6339 68.7473 14.0073 67.9815 14.0073Z" fill="#DFDFDF"/>
<path d="M67.9815 22.3618H17.8553C17.0895 22.3618 16.4629 22.9884 16.4629 23.7542C16.4629 24.52 17.0895 25.1466 17.8553 25.1466H67.9815C68.7473 25.1466 69.3739 24.52 69.3739 23.7542C69.3739 22.9884 68.7473 22.3618 67.9815 22.3618Z" fill="#DFDFDF"/>
<path d="M67.9845 30.7158H17.8582C17.0924 30.7158 16.4658 31.3424 16.4658 32.1082C16.4658 32.874 17.0924 33.5006 17.8582 33.5006H67.9845C68.7503 33.5006 69.3769 32.874 69.3769 32.1082C69.3769 31.3424 68.7503 30.7158 67.9845 30.7158Z" fill="#DFDFDF"/>
</g>
<defs>
<clipPath id="clip0_31_2565">
<rect width="84.2225" height="84.2225" fill="white" transform="translate(0.800781 0.0830078)"/>
</clipPath>
</defs>
</svg>
